HIERARCHY
ROOT Hips
{
	OFFSET 0.000000 0.000000 0.000000 
	CHANNELS 6 Xposition Yposition Zposition Zrotation Yrotation Xrotation
	JOINT LeftUpLeg
	{
		OFFSET 1.363060 -1.794630 0.839290 
		CHANNELS 3 Zrotation Yrotation Xrotation
		JOINT LeftLeg
		{
			OFFSET 2.448110 -6.726130 0.000000 
			CHANNELS 3 Zrotation Yrotation Xrotation
			JOINT LeftFoot
			{
				OFFSET 2.562200 -7.039590 0.000000 
				CHANNELS 3 Zrotation Yrotation Xrotation
				JOINT LeftToeBase
				{
					OFFSET 0.157640 -0.433110 2.322550 
					CHANNELS 3 Zrotation Yrotation Xrotation
					End Site
					{
						OFFSET 0.000000 0.000000 0.000000 
					}
				}
			}
		}
	}
	JOINT RightUpLeg
	{
		OFFSET -1.305520 -1.794630 0.839290 
		CHANNELS 3 Zrotation Yrotation Xrotation
		JOINT RightLeg
		{
			OFFSET -2.542530 -6.985550 0.000000 
			CHANNELS 3 Zrotation Yrotation Xrotation
			JOINT RightFoot
			{
				OFFSET -2.568260 -7.056230 0.000000 
				CHANNELS 3 Zrotation Yrotation Xrotation
				JOINT RightToeBase
				{
					OFFSET -0.164730 -0.452590 2.363150 
					CHANNELS 3 Zrotation Yrotation Xrotation
					End Site
					{
						OFFSET 0.000000 0.000000 0.000000 
					}
				}
			}
		}
	}
	JOINT Spine
	{
		OFFSET 0.028270 2.035590 -0.193380 
		CHANNELS 3 Zrotation Yrotation Xrotation
		JOINT Spine1
		{
			OFFSET 0.056720 2.048850 -0.042750 
			CHANNELS 3 Zrotation Yrotation Xrotation
			JOINT Neck1
			{
				OFFSET -0.054170 1.746240 0.172020 
				CHANNELS 3 Zrotation Yrotation Xrotation
				JOINT Head
				{
					OFFSET 0.104070 1.761360 -0.123970 
					CHANNELS 3 Zrotation Yrotation Xrotation
					End Site
					{
						OFFSET 0.000000 0.000000 0.000000 
					}
				}
			}
			JOINT LeftArm
			{
				OFFSET 3.362410 1.200890 -0.311210 
				CHANNELS 3 Zrotation Yrotation Xrotation
				JOINT LeftForeArm
				{
					OFFSET 4.983000 -0.000000 -0.000000 
					CHANNELS 3 Zrotation Yrotation Xrotation
					JOINT LeftHand
					{
						OFFSET 3.483560 -0.000000 -0.000000 
						CHANNELS 3 Zrotation Yrotation Xrotation
						JOINT LeftHandIndex1
						{
							OFFSET 0.715260 -0.000000 -0.000000 
							CHANNELS 3 Zrotation Yrotation Xrotation
							End Site
							{
								OFFSET 0.000000 0.000000 0.000000 
							}
						}
					}
				}
			}
			JOINT RightArm
			{
				OFFSET -3.136600 1.374050 -0.404650 
				CHANNELS 3 Zrotation Yrotation Xrotation
				JOINT RightForeArm
				{
					OFFSET -5.241900 -0.000000 -0.000000 
					CHANNELS 3 Zrotation Yrotation Xrotation
					JOINT RightHand
					{
						OFFSET -3.444170 -0.000000 -0.000000 
						CHANNELS 3 Zrotation Yrotation Xrotation
						JOINT RightHandIndex1
						{
							OFFSET -0.622530 -0.000000 -0.000000 
							CHANNELS 3 Zrotation Yrotation Xrotation
							End Site
							{
								OFFSET 0.000000 0.000000 0.000000 
							}
						}
					}
				}
			}
		}
	}
}
MOTION
Frames: 10
Frame Time: 0.041667
-0.059435 16.674572 -0.937289 1.515743 37.010369 -1.730667 -28.640869 -24.770098 -13.697145 4.565804 11.961000 39.433051 1.167268 -15.906221 -4.443145 0.237600 -3.137200 -8.660800 25.880705 -9.258188 -12.649881 -6.191042 -12.448612 43.345907 -1.054719 -14.706925 -33.198936 -0.028200 -1.084700 2.981800 1.479037 6.637157 7.558824 0.258673 3.361462 8.040769 13.868023 -13.359628 28.944036 5.605600 -5.252700 11.640100 -86.574425 1.533691 47.271672 63.530049 -55.852295 -35.189862 0.753355 1.514273 -1.892448 -7.125000 0.000000 0.000000 85.439561 -5.723107 30.908173 -56.267313 54.956418 -25.717400 0.570832 -0.907300 17.981921 7.125000 0.000000 0.000000 
-0.014350 16.686789 -0.929629 1.739270 36.720242 -1.627757 -28.930991 -24.302012 -13.436019 4.499636 11.859418 39.135134 1.169817 -15.876919 -4.440653 0.227000 -3.066900 -8.465100 25.553832 -9.119713 -12.374138 -6.142011 -12.385070 43.121317 -1.040291 -14.707241 -33.101028 -0.025400 -1.029300 2.829500 1.601147 6.596381 7.444757 0.545645 3.309463 8.126201 13.548714 -13.285939 28.961391 5.516300 -5.270500 11.638100 -86.987107 1.319988 47.034262 62.338065 -55.582805 -34.188208 0.716256 1.509396 -2.033436 -7.125000 0.000000 0.000000 85.182527 -5.668232 31.029086 -55.635660 54.737527 -25.249696 0.596771 -0.896228 18.164268 7.125000 0.000000 0.000000 
0.028893 16.700751 -0.923133 1.943348 36.430211 -1.482578 -29.200268 -23.919893 -13.207250 4.428333 11.754890 38.818052 1.172120 -15.766247 -4.444187 0.282100 -3.416000 -9.439100 25.261881 -8.924894 -12.166954 -6.092618 -12.326326 42.898945 -1.021740 -14.711201 -32.987316 -0.022700 -0.972400 2.672900 1.631184 6.654025 7.253158 0.563602 3.338980 8.102124 13.320115 -13.351124 28.869270 5.421900 -5.333600 11.542700 -87.028695 1.226004 47.179065 61.270000 -55.324516 -33.291754 0.679056 1.518002 -2.349501 -7.125000 0.000000 0.000000 85.299472 -5.746912 30.855992 -54.945695 54.505314 -24.741938 0.610236 -0.904864 18.488756 7.125000 0.000000 0.000000 
0.068646 16.711610 -0.916055 2.256343 36.121157 -1.267069 -29.551019 -23.513400 -12.999600 4.355951 11.648582 38.496241 1.174108 -15.714542 -4.441771 0.318800 -3.629400 -10.036400 24.889708 -8.718440 -11.982451 -6.041529 -12.266710 42.668098 -0.981974 -14.780959 -32.821328 -0.016800 -0.837700 2.302300 1.669898 6.631336 7.052950 0.699438 3.311253 8.035387 13.020724 -13.314540 28.781848 5.320400 -5.368000 11.436400 -87.148826 1.154565 47.239821 60.240021 -55.062993 -32.432179 0.646293 1.521956 -2.703062 -7.125000 0.000000 0.000000 85.285066 -5.809291 30.884569 -54.184563 54.234720 -24.181424 0.616063 -0.914786 18.784525 7.125000 0.000000 0.000000 
0.108883 16.723051 -0.907911 2.469669 35.812288 -1.123192 -29.816145 -23.100565 -12.788353 4.283497 11.540793 38.169114 1.176155 -15.677328 -4.434582 0.320200 -3.637100 -10.057800 24.600913 -8.514474 -11.759405 -5.986547 -12.199495 42.418215 -0.981479 -14.755133 -32.774357 -0.016500 -0.830500 2.282600 1.709552 6.563096 6.846446 0.789867 3.269736 7.961384 12.688853 -13.255291 28.673076 5.203300 -5.393300 11.329100 -87.255621 1.090247 47.221681 59.221269 -54.791661 -31.584327 0.611647 1.518073 -2.885149 -7.125000 0.000000 0.000000 85.271905 -5.867902 30.932874 -53.547030 54.000172 -23.711340 0.639341 -0.910988 18.826219 7.125000 0.000000 0.000000 
0.148636 16.737207 -0.897536 2.469374 35.441686 -1.123008 -29.874286 -22.656830 -12.561539 4.213415 11.433974 37.843136 1.179707 -15.661994 -4.436122 0.314300 -3.604200 -9.965800 24.512409 -8.292682 -11.473770 -5.924255 -12.118199 42.135965 -0.968133 -14.751004 -32.681490 -0.014600 -0.780700 2.145600 1.776405 6.496755 6.657414 0.849101 3.237794 7.929203 12.324689 -13.204713 28.557578 5.065400 -5.420800 11.227700 -87.348474 1.007194 47.170101 58.210326 -54.508053 -30.746777 0.573382 1.524548 -3.000522 -7.125000 0.000000 0.000000 85.284824 -5.880118 30.919317 -52.946587 53.774332 -23.269754 0.682691 -0.891927 18.759754 7.125000 0.000000 0.000000 
0.184413 16.751459 -0.889586 2.632506 35.060777 -1.026020 -30.084173 -22.237829 -12.334707 4.143127 11.325895 37.518526 1.185535 -15.577307 -4.481471 0.318900 -3.630100 -10.038300 24.278800 -8.079898 -11.217669 -5.856431 -12.032152 41.825350 -0.958865 -14.690289 -32.545814 -0.012200 -0.713700 1.961400 1.803067 6.428864 6.442417 0.897784 3.200447 7.806641 12.016560 -13.155129 28.483852 4.951700 -5.439300 11.159600 -87.413649 0.922286 47.132907 57.186319 -54.202460 -29.897286 0.553667 1.548613 -3.052146 -7.125000 0.000000 0.000000 85.372890 -5.800138 30.898667 -52.063945 53.432609 -22.621717 0.706936 -0.884272 18.896452 7.125000 0.000000 0.000000 
0.219027 16.765906 -0.883187 2.787331 34.707529 -0.919063 -30.284228 -21.881985 -12.142896 4.075021 11.222980 37.206039 1.187151 -15.508561 -4.477811 0.312100 -3.591500 -9.930000 24.053846 -7.900606 -10.987248 -5.781517 -11.938223 41.483795 -0.933852 -14.667343 -32.360380 -0.010300 -0.656200 1.803300 1.814812 6.321258 6.209011 0.901158 3.148276 7.657898 11.710891 -13.091804 28.511065 4.843100 -5.443100 11.162200 -87.520070 0.840190 46.993210 56.098901 -53.859801 -28.992542 0.562742 1.558966 -2.798751 -7.125000 0.000000 0.000000 85.414550 -5.596755 30.987045 -50.990793 52.997557 -21.840273 0.715702 -0.891336 19.103489 7.125000 0.000000 0.000000 
0.255095 16.781128 -0.874267 2.811396 34.326934 -0.886522 -30.357021 -21.521530 -11.951835 4.010010 11.123281 36.903697 1.185468 -15.453863 -4.426921 0.272900 -3.360500 -9.284000 23.961863 -7.682235 -10.713211 -5.703676 -11.837438 41.129969 -0.878771 -14.757533 -32.128269 -0.006700 -0.529300 1.454500 1.842771 6.220925 5.992333 0.889371 3.105818 7.560332 11.469749 -13.008273 28.434534 4.767900 -5.445400 11.109400 -87.590679 0.762533 46.908613 54.969860 -53.488493 -28.064065 0.549316 1.546636 -2.576229 -7.125000 0.000000 0.000000 85.409622 -5.517803 31.085901 -50.176230 52.652323 -21.253866 0.724939 -0.903207 19.225642 7.125000 0.000000 0.000000 
0.289903 16.795478 -0.863019 2.764885 33.929212 -0.854990 -30.356193 -21.192966 -11.801727 3.949198 11.031449 36.616575 1.194852 -15.324149 -4.529428 0.285600 -3.436900 -9.497500 23.956318 -7.408155 -10.431401 -5.624173 -11.731990 40.762393 -0.893252 -14.617346 -32.045372 -0.010700 -0.669000 1.838400 1.851791 6.161221 5.751369 0.810107 3.090653 7.440767 11.212717 -12.988558 28.396458 4.662500 -5.461400 11.075000 -87.515922 0.741772 47.018204 53.924115 -53.126713 -27.213222 0.513171 1.548214 -2.649107 -7.125000 0.000000 0.000000 85.520121 -5.571587 31.059677 -49.556704 52.384338 -20.808714 0.740872 -0.908875 19.348990 7.125000 0.000000 0.000000 
